HIERARCHY
ROOT Hips
{
	OFFSET -0.001795 -0.223333 0.028219
	CHANNELS 6 Xposition Yposition Zposition Zrotation Yrotation Xrotation 
	JOINT LeftUpLeg
	{
		OFFSET 0.069520 -0.091406 -0.006815
		CHANNELS 3 Zrotation Yrotation Xrotation
		JOINT LeftLeg
		{
			OFFSET 0.034277 -0.375199 -0.004496
			CHANNELS 3 Zrotation Yrotation Xrotation
			JOINT LeftFoot
			{
				OFFSET -0.013596 -0.397961 -0.043693
				CHANNELS 3 Zrotation Yrotation Xrotation
				JOINT LeftToe
				{
					OFFSET 0.026358 -0.055791 0.119288
					CHANNELS 3 Zrotation Yrotation Xrotation
					End Site
					{
						OFFSET 0.000000 0.000000 0.000000
					}
				}
			}
		}
	}
	JOINT RightUpLeg
	{
		OFFSET -0.067670 -0.090522 -0.004320
		CHANNELS 3 Zrotation Yrotation Xrotation
		JOINT RightLeg
		{
			OFFSET -0.038290 -0.382569 -0.008850
			CHANNELS 3 Zrotation Yrotation Xrotation
			JOINT RightFoot
			{
				OFFSET 0.015774 -0.398415 -0.042312
				CHANNELS 3 Zrotation Yrotation Xrotation
				JOINT RightToe
				{
					OFFSET -0.025372 -0.048144 0.123348
					CHANNELS 3 Zrotation Yrotation Xrotation
					End Site
					{
						OFFSET 0.000000 0.000000 0.000000
					}
				}
			}
		}
	}
	JOINT Spine
	{
		OFFSET -0.002533 0.108963 -0.026696
		CHANNELS 3 Zrotation Yrotation Xrotation
		JOINT Spine1
		{
			OFFSET 0.005487 0.135180 0.001092
			CHANNELS 3 Zrotation Yrotation Xrotation
			JOINT Spine2
			{
				OFFSET 0.001457 0.052922 0.025425
				CHANNELS 3 Zrotation Yrotation Xrotation
				JOINT Neck
				{
					OFFSET -0.002778 0.213870 -0.042857
					CHANNELS 3 Zrotation Yrotation Xrotation
					JOINT Head
					{
						OFFSET 0.005152 0.064970 0.051349
						CHANNELS 3 Zrotation Yrotation Xrotation
						End Site
						{
							OFFSET 0.000000 0.000000 0.000000
						}
					}
				}
				JOINT LeftShoulder
				{
					OFFSET 0.078845 0.121749 -0.034090
					CHANNELS 3 Zrotation Yrotation Xrotation
					JOINT LeftArm
					{
						OFFSET 0.090977 0.030469 -0.008868
						CHANNELS 3 Zrotation Yrotation Xrotation
						JOINT LeftForeArm
						{
							OFFSET 0.259612 -0.012772 -0.027456
							CHANNELS 3 Zrotation Yrotation Xrotation
							JOINT LeftHand
							{
								OFFSET 0.249234 0.008986 -0.001171
								CHANNELS 3 Zrotation Yrotation Xrotation
								End Site
								{
									OFFSET 0.000000 0.000000 0.000000
								}
							}
						}
					}
				}
				JOINT RightShoulder
				{
					OFFSET -0.081759 0.118833 -0.038615
					CHANNELS 3 Zrotation Yrotation Xrotation
					JOINT RightArm
					{
						OFFSET -0.096012 0.032551 -0.009143
						CHANNELS 3 Zrotation Yrotation Xrotation
						JOINT RightForeArm
						{
							OFFSET -0.253742 -0.013329 -0.021401
							CHANNELS 3 Zrotation Yrotation Xrotation
							JOINT RightHand
							{
								OFFSET -0.255298 0.007772 -0.005559
								CHANNELS 3 Zrotation Yrotation Xrotation
								End Site
								{
									OFFSET 0.000000 0.000000 0.000000
								}
							}
						}
					}
				}
			}
		}
	}
}
MOTION
Frames: 7
Frame Time: 0.050000
-0.063886 0.940433 -0.186431 -1.726947 15.285488 -1.486544 2.611715 -0.135907 -0.579603 -1.906232 0.117050 1.211207 6.470701 14.844194 7.602734 0.000000 0.000000 0.000000 -0.041529 0.238571 -2.325922 -1.455745 0.385368 5.349436 -5.906404 -14.880372 5.434393 0.000000 0.000000 0.000000 3.449227 -0.270522 3.412662 -5.807757 2.694893 0.248343 -4.661856 8.749199 7.356200 8.405511 -1.296475 -20.238980 0.000000 0.000000 0.000000 -16.217772 -10.485933 -0.500019 -41.286688 -9.548555 -0.739436 73.260815 -29.115999 -25.935210 0.000000 0.000000 0.000000 17.107939 12.944131 9.748356 51.418331 46.154978 16.057498 179.794665 76.034355 -164.493713 0.000000 0.000000 0.000000 
-0.062326 0.940477 -0.186541 -1.556409 16.191330 -1.318200 2.527597 -0.144999 -0.706579 -1.832991 0.108943 1.105532 5.921860 14.124999 7.992752 0.000000 0.000000 0.000000 -0.091452 0.238553 -2.344561 -1.725698 0.433100 5.486020 -5.998065 -15.033469 5.638305 0.000000 0.000000 0.000000 3.466910 -0.247326 3.071893 -5.384943 2.495854 0.066165 -5.086382 7.942906 7.669326 8.730264 -1.568166 -20.000959 0.000000 0.000000 0.000000 -16.051755 -11.053349 -0.130001 -41.332148 -12.438079 0.124431 77.191264 -32.524201 -30.356755 0.000000 0.000000 0.000000 17.229976 12.265490 9.356152 53.209170 46.710042 17.163908 175.084671 75.170307 -170.364376 0.000000 0.000000 0.000000 
-0.060772 0.940895 -0.186773 -1.390448 16.838699 -1.377181 2.324400 -0.132140 -0.577399 -1.710347 0.095354 1.131173 5.712178 13.806661 7.962296 0.000000 0.000000 0.000000 -0.392304 0.239447 -2.469497 -1.373338 0.378498 6.113597 -6.424043 -15.996057 5.434475 0.000000 0.000000 0.000000 3.385277 -0.238332 3.009604 -5.047877 2.345540 -0.157097 -5.459495 7.402927 7.828152 8.226172 -1.226902 -20.273536 0.000000 0.000000 0.000000 -16.077545 -11.785572 0.222015 -41.502181 -15.257536 1.027083 80.988764 -36.779528 -35.908918 0.000000 0.000000 0.000000 17.457231 11.680194 9.076505 54.524985 46.984847 17.897588 172.944084 75.065577 -173.044554 0.000000 0.000000 0.000000 
-0.059370 0.940503 -0.187180 -1.425471 17.609233 -1.435415 2.322757 -0.127023 -0.425728 -1.707822 0.093365 1.061338 5.491505 13.371540 7.610607 0.000000 0.000000 0.000000 -0.619878 0.200337 -2.166818 -1.145991 0.321342 5.669892 -6.518424 -16.176812 5.556793 0.000000 0.000000 0.000000 3.627086 -0.232807 2.812021 -4.713245 2.190557 -0.209211 -5.951683 6.704002 8.129378 7.550182 -0.898752 -20.022236 0.000000 0.000000 0.000000 -15.873351 -12.607508 0.684980 -41.185799 -18.475161 2.015400 84.356279 -40.258813 -40.946894 0.000000 0.000000 0.000000 17.266735 11.735133 9.030560 55.193695 47.448218 18.509341 174.587045 75.474410 -170.952233 0.000000 0.000000 0.000000 
-0.058164 0.940225 -0.187739 -1.359586 17.592897 -1.507114 2.376422 -0.117648 -0.222605 -1.707173 0.094276 1.031141 5.640615 13.540313 7.429948 0.000000 0.000000 0.000000 -1.051001 0.186674 -2.195570 -0.809711 0.263305 6.028107 -6.252667 -15.614053 5.192431 0.000000 0.000000 0.000000 3.823025 -0.228869 2.684484 -4.312697 2.013795 -0.292720 -6.322185 6.679554 8.152469 7.229631 -0.737452 -19.830013 0.000000 0.000000 0.000000 -15.290875 -13.628048 1.259505 -40.000508 -20.996369 2.708240 85.398465 -40.169961 -41.578921 0.000000 0.000000 0.000000 17.288183 11.584916 8.969871 55.410717 48.040286 18.981304 176.773941 76.648753 -168.285112 0.000000 0.000000 0.000000 
-0.057084 0.939472 -0.188175 -1.325120 17.437209 -1.462570 2.329053 -0.112695 -0.180752 -1.707304 0.090206 1.211304 5.762625 13.695328 7.338687 0.000000 0.000000 0.000000 -1.438029 0.182158 -2.302000 -0.431011 0.192017 6.083613 -5.968264 -15.007652 4.793178 0.000000 0.000000 0.000000 4.254988 -0.226712 2.447500 -4.141411 1.930309 -0.150255 -6.483359 6.250458 8.184757 6.202606 -0.209029 -19.734998 0.000000 0.000000 0.000000 -14.917308 -14.179971 1.693801 -37.062398 -22.896246 3.008885 84.005312 -37.256102 -37.857570 0.000000 0.000000 0.000000 16.968650 11.839305 8.924552 54.362224 48.778211 18.939546 -179.309478 77.625954 -163.853569 0.000000 0.000000 0.000000 
-0.055981 0.939255 -0.188430 -1.124730 17.384853 -1.394828 2.033928 -0.084145 0.086552 -1.595348 0.086864 1.020512 5.952128 14.022897 7.490926 0.000000 0.000000 0.000000 -1.713402 0.157976 -2.147994 -0.592368 0.220988 5.844675 -5.611832 -14.191958 4.730472 0.000000 0.000000 0.000000 4.330186 -0.218338 2.310964 -3.744193 1.744937 -0.052000 -6.270293 5.642487 8.201891 5.264515 0.155070 -19.126756 0.000000 0.000000 0.000000 -14.095701 -14.423999 2.116764 -33.403712 -23.489730 2.734081 80.239329 -31.862908 -30.795040 0.000000 0.000000 0.000000 16.653976 12.298996 8.941069 53.265842 49.300941 18.724953 -176.597256 79.142387 -161.400839 0.000000 0.000000 0.000000 
